<svg xmlns="http://www.w3.org/2000/svg" width="1024" height="1024" viewBox="0 0 1024 1024">
<g>
<path d="M 344.00 626.00 C344.00,628.89 343.58,630.00 342.50,630.00 C341.26,630.00 341.00,628.17 341.00,619.50 L 341.00 609.00 L 346.81 609.00 C350.12,609.00 353.42,609.58 354.48,610.36 C357.08,612.26 356.94,617.82 354.23,620.02 L 352.12 621.72 L 354.65 625.44 C356.04,627.48 356.95,629.39 356.66,629.67 C355.45,630.88 352.32,628.74 350.57,625.51 C349.24,623.03 347.99,622.00 346.34,622.00 C344.28,622.00 344.00,622.47 344.00,626.00 ZM 546.15 627.00 C545.57,628.65 544.41,630.00 543.55,630.00 C541.39,630.00 541.51,629.41 545.89,618.87 C548.76,611.96 550.30,609.42 551.76,609.20 C552.85,609.03 554.00,609.48 554.30,610.20 C559.52,622.44 562.00,628.57 562.00,629.21 C562.00,631.22 558.89,629.69 557.50,627.00 C556.13,624.36 555.42,624.00 551.57,624.00 C547.61,624.00 547.10,624.28 546.15,627.00 ZM 643.15 627.00 C642.45,629.02 641.43,630.00 640.05,630.00 C638.92,630.00 638.00,629.87 638.00,629.72 C638.00,629.56 640.02,624.95 642.48,619.47 C648.54,605.98 649.46,605.94 654.84,618.97 C657.13,624.51 659.00,629.25 659.00,629.52 C659.00,629.78 658.34,630.00 657.53,630.00 C656.71,630.00 655.35,628.65 654.50,627.00 C653.13,624.36 652.42,624.00 648.57,624.00 C644.61,624.00 644.10,624.28 643.15,627.00 ZM 399.15 627.00 C398.57,628.65 397.41,630.00 396.55,630.00 C394.41,630.00 394.50,629.60 398.82,618.93 C404.11,605.85 405.33,605.83 410.82,618.70 C413.12,624.09 415.00,628.84 415.00,629.25 C415.00,631.22 411.88,629.66 410.50,627.00 C409.13,624.36 408.42,624.00 404.57,624.00 C400.61,624.00 400.10,624.28 399.15,627.00 ZM 729.00 623.00 C729.00,629.45 728.40,631.07 726.67,629.33 C726.30,628.97 726.00,624.24 726.00,618.83 C726.00,610.05 726.19,609.00 727.79,609.00 C728.86,609.00 731.56,611.79 734.54,615.99 C737.27,619.83 739.84,622.98 740.25,622.99 C740.66,622.99 741.00,619.85 741.00,616.00 C741.00,610.44 741.31,609.00 742.50,609.00 C743.74,609.00 744.00,610.83 744.00,619.50 C744.00,628.86 743.81,629.99 742.25,629.94 C741.27,629.90 738.29,626.82 735.50,622.95 C732.75,619.14 730.16,616.02 729.75,616.01 C729.34,616.00 729.00,619.15 729.00,623.00 ZM 383.00 628.55 C383.00,629.67 381.46,630.00 376.17,630.00 C372.41,630.00 369.03,629.70 368.67,629.33 C368.30,628.97 368.00,624.24 368.00,618.83 L 368.00 609.00 L 375.50 609.00 C381.50,609.00 383.00,609.30 383.00,610.50 C383.00,611.65 381.74,612.00 377.62,612.00 C372.68,612.00 372.19,612.21 371.76,614.48 C371.15,617.67 371.56,618.00 376.17,618.00 C378.91,618.00 380.00,618.43 380.00,619.50 C380.00,620.59 378.88,621.00 375.93,621.00 C372.09,621.00 371.88,621.15 372.18,623.75 C372.48,626.31 372.85,626.52 377.75,626.80 C381.53,627.02 383.00,627.51 383.00,628.55 ZM 715.00 628.50 C715.00,629.69 713.57,630.00 708.17,630.00 C704.41,630.00 701.03,629.70 700.67,629.33 C700.30,628.97 700.00,624.24 700.00,618.83 L 700.00 609.00 L 707.00 609.00 C712.56,609.00 714.00,609.31 714.00,610.50 C714.00,611.63 712.78,612.00 709.00,612.00 C704.11,612.00 704.00,612.07 704.00,615.00 C704.00,617.83 704.22,618.00 708.00,618.00 C710.89,618.00 712.00,618.42 712.00,619.50 C712.00,620.58 710.89,621.00 708.00,621.00 C704.22,621.00 704.00,621.17 704.00,624.00 C704.00,626.97 704.06,627.00 709.50,627.00 C713.72,627.00 715.00,627.35 715.00,628.50 ZM 612.00 628.55 C612.00,629.66 610.52,630.00 605.67,630.00 C602.18,630.00 599.03,629.70 598.67,629.33 C598.30,628.97 598.00,624.24 598.00,618.83 L 598.00 609.00 L 605.00 609.00 C610.56,609.00 612.00,609.31 612.00,610.50 C612.00,611.63 610.79,612.00 607.12,612.00 C602.71,612.00 602.19,612.24 601.76,614.48 C601.15,617.67 601.56,618.00 606.17,618.00 C608.91,618.00 610.00,618.43 610.00,619.50 C610.00,620.59 608.88,621.00 605.93,621.00 C602.09,621.00 601.88,621.15 602.18,623.75 C602.47,626.27 602.90,626.53 607.25,626.80 C610.58,627.02 612.00,627.54 612.00,628.55 ZM 685.43 629.02 C673.25,633.66 663.53,621.27 672.40,612.40 C675.11,609.69 676.60,609.00 679.71,609.00 C684.55,609.00 688.11,611.25 686.25,613.13 C685.28,614.12 684.73,614.13 683.80,613.20 C681.95,611.35 677.22,611.78 675.00,614.00 C672.01,616.99 672.25,623.46 675.44,625.55 C676.77,626.43 679.14,627.00 680.68,626.82 C682.92,626.57 683.60,625.89 684.00,623.51 C684.31,621.74 685.22,620.39 686.26,620.19 C687.69,619.91 688.00,620.59 688.00,623.95 C688.00,627.43 687.61,628.20 685.43,629.02 ZM 480.00 628.55 C480.00,629.66 478.53,630.00 473.67,630.00 C470.18,630.00 467.03,629.70 466.67,629.33 C466.30,628.97 466.00,624.24 466.00,618.83 L 466.00 609.00 L 473.00 609.00 C478.44,609.00 480.00,609.32 480.00,610.45 C480.00,611.49 478.53,611.98 474.75,612.20 C469.85,612.48 469.48,612.69 469.18,615.25 C468.88,617.89 469.04,618.00 473.43,618.00 C476.83,618.00 478.00,618.39 478.00,619.50 C478.00,620.61 476.84,621.00 473.56,621.00 C469.33,621.00 469.13,621.13 469.33,623.75 C469.52,626.33 469.86,626.52 474.77,626.80 C478.53,627.02 480.00,627.51 480.00,628.55 ZM 504.81 627.96 C501.36,631.18 492.00,630.06 492.00,626.43 C492.00,625.23 492.48,625.00 493.75,625.57 C494.71,626.00 497.08,626.39 499.00,626.43 C501.85,626.49 502.56,626.10 502.81,624.35 C503.05,622.63 502.35,621.95 499.31,620.97 C492.05,618.64 489.66,613.75 494.22,610.56 C497.76,608.08 506.00,608.69 506.00,611.42 C506.00,612.20 504.33,612.60 501.28,612.56 C495.32,612.48 494.14,615.02 499.20,617.02 C503.52,618.73 507.00,621.90 507.00,624.14 C507.00,625.12 506.02,626.84 504.81,627.96 ZM 771.86 628.38 C766.30,632.28 756.95,628.62 755.50,621.98 C754.63,618.03 757.27,612.43 760.87,610.57 C766.39,607.71 773.00,608.93 773.00,612.81 C773.00,613.77 772.45,613.97 771.25,613.45 C766.57,611.42 763.32,611.77 761.15,614.54 C758.18,618.32 758.37,622.36 761.63,624.93 C764.58,627.24 767.13,627.53 770.17,625.91 C773.28,624.24 774.74,626.37 771.86,628.38 ZM 794.00 625.73 C794.00,628.62 793.57,630.00 792.67,630.00 C790.59,630.00 790.00,628.95 790.00,625.25 C790.00,623.15 788.65,619.53 786.50,615.86 C784.58,612.58 783.00,609.69 783.00,609.45 C783.00,609.20 783.89,609.00 784.98,609.00 C786.37,609.00 787.75,610.56 789.57,614.14 L 792.17 619.27 L 795.11 614.14 C797.17,610.52 798.66,609.00 800.14,609.00 C800.22,609.00 800.30,609.00 800.38,609.00 C800.97,609.00 801.38,608.99 801.54,609.19 C801.92,609.68 800.80,611.34 796.99,617.01 L 796.34 617.98 C794.80,620.28 794.00,622.92 794.00,625.73 ZM 441.00 628.19 C441.00,629.75 440.12,630.00 434.67,630.00 C431.18,630.00 428.03,629.70 427.67,629.33 C427.30,628.97 427.00,624.24 427.00,618.83 C427.00,609.73 427.15,609.00 428.96,609.00 C430.74,609.00 430.95,609.82 431.21,617.75 L 431.50 626.50 L 436.25 626.44 C440.19,626.39 441.00,626.68 441.00,628.19 ZM 581.00 621.00 C581.00,627.83 580.68,630.00 579.67,630.00 C577.32,630.00 577.00,628.84 577.00,620.33 L 577.00 612.00 L 574.00 612.00 C571.00,609.28 572.61,609.00 579.50,609.00 C586.39,609.00 588.00,609.28 588.00,610.50 C588.00,611.55 586.94,612.00 584.50,612.00 L 581.00 612.00 ZM 527.79 620.74 C527.54,628.13 527.23,629.53 525.75,629.81 C524.19,630.11 524.00,629.18 524.00,621.07 L 524.00 612.00 L 520.50 612.00 C518.06,612.00 517.00,611.55 517.00,610.50 C517.00,609.28 518.67,609.00 526.00,609.00 C533.33,609.00 535.00,609.28 535.00,610.50 C535.00,611.54 533.95,612.00 531.54,612.00 L 528.08 612.00 ZM 344.38 616.25 C343.96,618.81 344.17,619.00 347.43,619.00 C351.20,619.00 353.50,616.48 352.39,613.57 C351.78,611.98 345.08,611.24 344.92,612.75 C344.87,613.16 344.63,614.74 344.38,616.25 ZM 551.75 621.21 L 551.84 621.22 C553.52,621.42 554.39,621.53 554.70,621.16 C555.04,620.76 554.68,619.77 553.93,617.68 L 553.89 617.57 C552.36,613.33 551.71,613.15 550.16,616.55 C548.48,620.23 548.68,620.83 551.75,621.21 ZM 648.33 621.05 C650.08,621.35 651.64,621.51 651.81,621.40 C651.98,621.30 651.38,619.48 650.49,617.36 L 648.85 613.50 L 647.01 617.00 L 645.17 620.50 ZM 402.04 619.75 C402.01,620.48 403.25,621.00 405.00,621.00 C408.49,621.00 408.52,620.90 406.38,616.77 L 404.76 613.64 L 403.42 616.07 C402.68,617.41 402.05,619.06 402.04,619.75 Z" fill="rgb(14,14,14)"/>
<path d="M 862.25 587.02 C843.58,587.61 831.90,587.65 831.57,587.12 C831.34,586.75 829.74,582.85 828.01,578.47 C813.81,542.51 789.53,517.55 755.50,503.94 C729.35,493.48 700.70,488.35 662.75,487.31 C650.24,486.97 640.00,486.45 640.00,486.16 C640.00,485.87 643.71,481.78 648.25,477.07 C727.42,394.90 762.83,359.00 764.72,359.00 C765.95,359.00 779.83,371.70 827.00,415.99 C834.97,423.48 844.65,432.49 848.50,436.00 C861.12,447.53 879.03,464.38 894.98,479.74 L 902.50 486.98 L 884.33 486.99 C874.34,486.99 865.45,487.27 864.58,487.61 C863.17,488.15 863.00,493.49 863.00,537.61 C863.00,564.77 862.66,587.01 862.25,587.02 ZM 837.08 577.15 C837.92,578.71 839.30,579.00 846.04,579.00 L 854.00 579.00 L 854.00 479.00 L 865.94 479.00 C873.20,479.00 878.14,478.59 878.53,477.95 C878.89,477.37 876.10,474.11 872.34,470.70 C868.58,467.29 858.08,457.53 849.00,449.00 C839.93,440.48 830.25,431.45 827.50,428.93 C824.75,426.41 810.80,413.39 796.50,400.00 C782.20,386.61 769.27,374.53 767.77,373.15 C765.06,370.68 765.01,370.68 762.89,372.58 C761.72,373.64 746.32,389.35 728.67,407.50 C711.03,425.65 688.58,448.67 678.80,458.65 C669.01,468.64 661.00,477.30 661.00,477.90 C661.00,478.63 664.49,479.00 671.25,479.01 C702.20,479.03 744.13,488.26 769.30,500.57 C787.93,509.69 805.13,523.58 815.71,538.05 C821.14,545.48 831.38,563.36 833.99,569.97 C835.14,572.90 836.53,576.13 837.08,577.15 ZM 560.00 589.00 L 560.00 598.00 L 550.00 598.00 L 550.00 543.00 L 554.50 543.00 C558.71,543.00 559.00,543.17 559.00,545.67 L 559.00 548.35 L 561.25 546.24 C566.11,541.69 572.26,540.90 579.28,543.91 C584.30,546.06 587.25,549.63 588.88,555.50 C593.74,573.06 580.32,587.75 565.02,581.62 C562.79,580.73 560.74,580.00 560.48,580.00 C560.22,580.00 560.00,584.05 560.00,589.00 ZM 440.75 582.01 C440.06,582.02 438.60,582.20 437.50,582.42 C436.40,582.63 434.71,582.60 433.75,582.33 C432.14,581.89 432.00,579.76 432.00,555.83 L 432.00 529.80 L 444.75 530.16 C459.31,530.57 463.88,532.11 467.74,537.90 C470.96,542.73 470.96,553.29 467.75,558.01 C463.85,563.74 460.89,565.22 451.05,566.37 L 442.00 567.42 L 442.00 574.71 C442.00,579.87 441.63,582.00 440.75,582.01 ZM 253.03 570.00 L 252.50 582.50 L 248.96 582.80 C247.02,582.96 245.11,582.77 244.71,582.38 C244.32,581.99 244.00,576.90 243.99,571.08 C243.99,555.09 242.26,551.00 235.50,551.00 C228.12,551.00 226.00,555.34 226.00,570.45 L 226.00 582.00 L 217.00 582.00 L 217.00 543.00 L 221.50 543.00 C225.33,543.00 226.00,543.30 226.00,545.00 C226.00,547.37 227.27,547.58 229.00,545.50 C230.86,543.26 237.34,541.65 241.42,542.42 C243.41,542.79 246.54,544.41 248.37,546.02 L 251.70 548.95 L 253.92 546.58 C256.72,543.61 263.85,541.56 268.43,542.42 C273.20,543.31 277.73,547.36 278.97,551.81 C280.35,556.79 280.32,581.68 278.94,582.54 C278.35,582.90 276.37,582.92 274.53,582.57 L 271.19 581.95 L 270.85 568.58 C270.55,557.14 270.23,554.90 268.60,553.10 C265.22,549.38 256.65,551.01 254.36,555.81 C253.92,556.74 253.32,563.12 253.03,570.00 ZM 199.86 579.71 C194.44,583.30 185.36,583.95 179.50,581.16 C163.82,573.71 164.32,551.21 180.34,543.93 C190.17,539.47 202.88,543.69 206.64,552.67 C207.39,554.47 208.00,558.89 208.00,562.51 C208.00,570.73 205.52,575.96 199.86,579.71 ZM 533.86 579.71 C529.25,582.76 519.85,583.80 514.50,581.85 C510.06,580.23 504.43,574.39 503.14,570.07 C500.62,561.67 502.37,554.19 508.26,548.12 C516.52,539.61 531.57,540.32 538.62,549.57 C541.10,552.83 541.55,554.40 541.85,561.02 C542.28,570.43 540.07,575.60 533.86,579.71 ZM 126.50 562.50 L 125.50 582.21 L 121.33 582.52 C119.03,582.69 116.90,582.56 116.58,582.25 C116.26,581.93 116.00,570.04 116.00,555.83 L 116.00 530.00 L 126.00 530.00 L 126.00 554.00 L 150.00 554.00 L 150.00 530.00 L 160.03 530.00 L 159.50 582.50 L 157.15 582.83 C155.85,583.02 153.72,582.89 152.40,582.56 C150.07,581.98 150.00,581.68 150.00,571.95 L 150.00 561.94 ZM 747.10 581.85 C741.94,583.40 734.17,583.24 730.50,581.51 C722.66,577.82 719.00,571.77 719.00,562.48 C719.00,552.45 724.80,544.81 733.83,542.93 C746.63,540.28 756.00,547.70 756.00,560.49 L 756.00 564.94 L 742.76 565.22 C731.07,565.47 729.49,565.70 729.19,567.25 C729.00,568.22 730.20,570.35 731.85,572.00 C734.36,574.52 735.62,574.99 739.67,574.97 C742.33,574.95 745.37,574.28 746.44,573.47 C749.01,571.53 750.30,571.62 753.14,573.92 L 755.50 575.83 L 753.21 578.27 C751.96,579.61 749.21,581.22 747.10,581.85 ZM 317.50 581.14 C312.65,583.34 304.75,583.46 300.00,581.41 C292.13,578.00 288.00,571.43 288.00,562.34 C288.00,552.36 293.90,544.74 303.07,542.85 C314.25,540.56 322.80,545.90 325.01,556.56 C325.04,556.71 325.08,556.86 325.11,557.01 C325.79,560.31 326.20,562.24 325.42,563.38 C324.32,565.00 320.83,565.00 312.36,565.00 L 311.53 565.00 C298.45,565.00 298.00,565.07 298.00,567.10 C298.00,568.25 299.44,570.54 301.20,572.18 C303.99,574.79 304.96,575.11 308.95,574.73 C311.45,574.50 314.96,573.68 316.75,572.93 C319.74,571.67 320.18,571.73 322.17,573.73 C324.07,575.63 324.16,576.10 322.92,577.60 C322.14,578.55 319.70,580.14 317.50,581.14 ZM 628.25 579.92 C625.40,581.76 622.87,582.41 617.51,582.65 C609.68,583.00 609.10,582.85 603.62,579.16 C592.44,571.63 593.88,550.76 606.00,544.52 C609.99,542.47 616.45,541.77 620.76,542.93 C628.65,545.06 632.82,550.73 633.28,559.93 L 633.50 564.50 L 619.75 564.78 C606.15,565.05 606.00,565.08 606.00,567.35 C606.00,572.22 614.40,576.48 620.70,574.82 C622.46,574.35 624.18,573.53 624.51,572.98 C625.49,571.40 628.55,571.85 630.35,573.83 C632.70,576.43 632.44,577.20 628.25,579.92 ZM 343.15 570.06 L 342.80 583.00 L 339.07 583.00 C337.01,583.00 335.03,582.70 334.67,582.33 C334.30,581.97 334.00,572.97 334.00,562.33 L 334.00 543.00 L 338.50 543.00 C342.71,543.00 343.00,543.17 343.00,545.67 L 343.00 548.35 L 345.25 546.34 C352.44,539.90 363.70,541.05 368.74,548.72 C370.18,550.92 370.56,554.16 370.84,566.64 L 371.18 581.88 L 367.65 582.54 C365.72,582.90 363.65,582.90 363.06,582.54 C362.43,582.15 362.00,577.95 361.99,572.19 C361.97,555.08 360.27,551.00 353.15,551.00 C350.24,551.00 348.70,551.71 346.44,554.06 C343.54,557.08 343.49,557.32 343.15,570.06 ZM 786.00 581.25 C778.23,585.13 762.00,581.63 762.00,576.07 C762.00,575.14 762.61,573.55 763.34,572.54 C764.60,570.82 764.88,570.81 767.59,572.32 C772.68,575.14 777.36,575.89 780.84,574.42 C786.81,571.92 784.25,568.66 773.77,565.42 C763.68,562.30 759.77,555.59 764.21,549.00 C766.85,545.09 770.45,543.02 775.89,542.29 C780.30,541.70 787.00,543.37 790.03,545.82 C792.15,547.54 792.18,547.75 790.64,550.73 L 789.03 553.83 L 785.07 551.92 C779.59,549.27 774.54,549.40 772.56,552.22 C770.41,555.28 771.99,556.63 780.05,558.63 C787.50,560.48 791.69,563.82 792.59,568.63 C793.46,573.25 790.43,579.03 786.00,581.25 ZM 692.92 582.07 C691.14,583.20 682.21,583.16 679.37,582.01 C674.83,580.18 673.00,575.84 672.99,566.85 C672.97,554.78 672.22,551.17 669.63,550.80 C667.96,550.57 667.43,549.69 667.19,546.75 C666.91,543.31 667.09,543.00 669.44,543.00 C671.85,543.00 672.00,542.70 672.00,538.00 L 672.00 533.00 L 682.00 533.00 L 682.00 543.00 L 694.12 543.00 L 693.50 550.50 L 687.75 550.80 L 682.00 551.10 L 682.00 561.39 C682.00,573.23 683.16,575.42 689.11,574.83 C692.08,574.53 692.49,574.82 693.37,577.84 C694.12,580.43 694.02,581.37 692.92,582.07 ZM 404.63 581.70 C403.55,582.78 392.70,583.07 390.39,582.07 C385.86,580.13 384.00,576.22 383.99,568.62 C383.99,564.70 383.70,559.16 383.36,556.30 C382.84,552.01 382.36,551.05 380.62,550.80 C377.61,550.37 377.51,543.72 380.50,543.15 C383.19,542.64 383.97,541.21 383.98,536.75 L 384.00 533.00 L 393.00 533.00 L 393.00 543.00 L 404.00 543.00 L 404.00 551.00 L 393.00 551.00 L 393.00 561.35 C393.00,573.23 394.15,575.42 400.11,574.83 C403.06,574.53 403.49,574.83 404.35,577.77 C404.87,579.56 405.00,581.34 404.63,581.70 ZM 487.00 569.89 C486.67,578.23 486.64,581.31 485.20,582.26 C484.36,582.82 483.04,582.65 480.90,582.37 C480.68,582.34 480.46,582.31 480.23,582.28 L 476.96 581.87 L 477.50 543.50 L 482.25 543.20 C486.83,542.90 487.00,542.99 487.00,545.62 L 487.00 548.35 L 489.25 546.37 C491.77,544.15 496.34,542.00 498.55,542.00 C499.62,542.00 500.00,543.29 500.00,546.97 C500.00,550.87 499.69,551.82 498.57,551.39 C496.88,550.74 490.65,553.52 488.80,555.74 C487.95,556.75 487.32,561.72 487.00,569.89 ZM 650.01 571.00 L 649.50 582.50 L 646.50 582.69 L 646.26 582.71 C644.70,582.81 643.60,582.88 642.82,582.42 C641.00,581.31 641.00,577.19 641.00,563.32 L 641.00 562.42 L 641.00 543.00 L 645.50 543.00 C649.63,543.00 650.00,543.20 650.00,545.50 C650.00,546.88 650.45,548.00 651.00,548.00 C651.55,548.00 652.00,547.54 652.00,546.99 C652.00,545.37 658.24,542.01 661.25,542.00 C663.88,542.00 664.00,542.21 664.00,547.00 C664.00,551.98 663.99,552.00 660.72,552.00 C657.04,552.00 653.63,554.02 651.77,557.30 C651.09,558.51 650.30,564.67 650.01,571.00 ZM 517.43 574.04 C525.45,577.28 533.00,571.69 533.00,562.50 C533.00,555.90 527.94,549.99 522.30,550.00 C519.08,550.01 513.91,553.96 512.40,557.57 C509.97,563.41 512.61,572.09 517.43,574.04 ZM 182.84 573.47 C193.58,579.31 203.92,565.56 196.75,554.97 C191.50,547.22 180.72,549.53 177.88,559.02 C176.36,564.09 178.83,571.30 182.84,573.47 ZM 564.78 573.49 C568.41,575.53 573.76,574.69 576.86,571.60 C578.70,569.76 579.44,567.75 579.77,563.73 C580.80,551.37 570.76,545.69 562.85,554.16 C560.44,556.74 560.00,558.05 560.00,562.67 C560.00,569.05 561.03,571.39 564.78,573.49 ZM 711.00 543.00 L 711.00 583.00 L 707.17 583.00 C705.06,583.00 703.03,582.70 702.67,582.33 C702.30,581.97 702.00,572.97 702.00,562.33 L 702.00 543.00 ZM 442.21 548.75 L 441.92 558.00 L 447.51 558.00 C455.07,558.00 458.65,556.01 459.98,551.09 C462.13,543.10 457.83,538.71 448.35,539.20 L 442.50 539.50 ZM 778.88 453.38 C773.89,454.37 769.05,453.61 767.77,451.63 C766.87,450.26 766.76,441.78 767.61,439.58 C768.08,438.35 769.74,438.00 775.11,438.00 L 782.00 438.00 L 782.00 452.75 ZM 781.79 469.71 L 781.50 477.50 L 776.00 477.76 C768.24,478.13 767.50,477.39 767.50,469.29 L 767.50 462.50 L 774.79 462.21 L 782.09 461.91 ZM 758.93 476.59 C757.12,478.77 747.34,478.06 745.77,475.63 C744.77,474.09 744.83,464.81 745.86,463.20 C746.43,462.29 748.64,461.99 753.09,462.20 L 759.50 462.50 L 759.80 468.84 C759.98,472.65 759.63,475.74 758.93,476.59 ZM 760.09 438.00 L 759.50 452.50 L 752.83 452.79 C745.24,453.13 744.74,452.61 745.13,444.82 C745.47,438.04 745.51,438.00 753.15,438.00 ZM 298.00 556.95 C298.00,558.87 298.59,559.00 307.50,559.00 C312.73,559.00 317.00,558.75 317.00,558.45 C317.00,558.15 316.32,556.59 315.49,554.98 C313.63,551.39 311.18,550.00 306.71,550.00 C302.73,550.00 298.00,553.78 298.00,556.95 ZM 606.00 556.95 C606.00,558.86 606.60,559.00 615.00,559.00 C623.40,559.00 624.00,558.86 624.00,556.95 C624.00,553.47 619.60,550.00 615.19,550.00 C610.73,550.00 606.00,553.58 606.00,556.95 ZM 728.66 557.25 C728.23,558.83 729.13,559.00 737.70,559.00 L 747.22 559.00 L 746.55 556.25 C744.43,547.55 731.06,548.29 728.66,557.25 ZM 710.75 535.17 C708.89,537.47 706.58,537.97 703.89,536.64 C699.04,534.24 701.13,526.00 706.58,526.00 C711.12,526.00 713.65,531.57 710.75,535.17 Z" fill="rgb(245,158,33)"/>
<path d="M 565.80 543.23 C564.18,543.91 562.66,544.92 561.25,546.24 L 559.00 548.35 L 559.00 545.67 C559.00,544.52 558.94,543.87 558.46,543.49 C559.02,543.65 559.43,543.83 559.62,544.02 C560.31,544.71 562.02,544.55 564.95,543.52 C565.24,543.42 565.52,543.32 565.80,543.23 ZM 570.93 542.12 C573.61,541.94 576.07,542.53 579.28,543.91 C576.33,542.64 573.54,542.05 570.93,542.12 Z" fill="#fff"/>
<path d="M 0.00 512.00 L 0.00 0.00 L 512.00 0.00 L 1024.00 0.00 L 1024.00 512.00 L 1024.00 1024.00 L 512.00 1024.00 L 0.00 1024.00 L 0.00 512.00 ZM 344.00 626.00 C344.00,622.47 344.28,622.00 346.34,622.00 C347.99,622.00 349.24,623.03 350.57,625.51 C352.32,628.74 355.45,630.88 356.66,629.67 C356.95,629.39 356.04,627.48 354.65,625.44 L 352.12 621.72 L 354.23 620.02 C356.94,617.82 357.08,612.26 354.48,610.36 C353.42,609.58 350.12,609.00 346.81,609.00 L 341.00 609.00 L 341.00 619.50 C341.00,628.17 341.26,630.00 342.50,630.00 C343.58,630.00 344.00,628.89 344.00,626.00 ZM 383.00 628.55 C383.00,627.51 381.53,627.02 377.75,626.80 C372.85,626.52 372.48,626.31 372.18,623.75 C371.88,621.15 372.09,621.00 375.93,621.00 C378.88,621.00 380.00,620.59 380.00,619.50 C380.00,618.43 378.91,618.00 376.17,618.00 C371.56,618.00 371.15,617.67 371.76,614.48 C372.19,612.21 372.68,612.00 377.62,612.00 C381.74,612.00 383.00,611.65 383.00,610.50 C383.00,609.30 381.50,609.00 375.50,609.00 L 368.00 609.00 L 368.00 618.83 C368.00,624.24 368.30,628.97 368.67,629.33 C369.03,629.70 372.41,630.00 376.17,630.00 C381.46,630.00 383.00,629.67 383.00,628.55 ZM 399.15 627.00 C400.10,624.28 400.61,624.00 404.57,624.00 C408.42,624.00 409.13,624.36 410.50,627.00 C411.88,629.66 415.00,631.22 415.00,629.25 C415.00,628.84 413.12,624.09 410.82,618.70 C405.33,605.83 404.11,605.85 398.82,618.93 C394.50,629.60 394.41,630.00 396.55,630.00 C397.41,630.00 398.57,628.65 399.15,627.00 ZM 441.00 628.19 C441.00,626.68 440.19,626.39 436.25,626.44 L 431.50 626.50 L 431.21 617.75 C430.95,609.82 430.74,609.00 428.96,609.00 C427.15,609.00 427.00,609.73 427.00,618.83 C427.00,624.24 427.30,628.97 427.67,629.33 C428.03,629.70 431.18,630.00 434.67,630.00 C440.12,630.00 441.00,629.75 441.00,628.19 ZM 480.00 628.55 C480.00,627.51 478.53,627.02 474.77,626.80 C469.86,626.52 469.52,626.33 469.33,623.75 C469.13,621.13 469.33,621.00 473.56,621.00 C476.84,621.00 478.00,620.61 478.00,619.50 C478.00,618.39 476.83,618.00 473.43,618.00 C469.04,618.00 468.88,617.89 469.18,615.25 C469.48,612.69 469.85,612.48 474.75,612.20 C478.53,611.98 480.00,611.49 480.00,610.45 C480.00,609.32 478.44,609.00 473.00,609.00 L 466.00 609.00 L 466.00 618.83 C466.00,624.24 466.30,628.97 466.67,629.33 C467.03,629.70 470.18,630.00 473.67,630.00 C478.53,630.00 480.00,629.66 480.00,628.55 ZM 504.81 627.96 C506.02,626.84 507.00,625.12 507.00,624.14 C507.00,621.90 503.52,618.73 499.20,617.02 C494.14,615.02 495.32,612.48 501.28,612.56 C504.33,612.60 506.00,612.20 506.00,611.42 C506.00,608.69 497.76,608.08 494.22,610.56 C489.66,613.75 492.05,618.64 499.31,620.97 C502.35,621.95 503.05,622.63 502.81,624.35 C502.56,626.10 501.85,626.49 499.00,626.43 C497.08,626.39 494.71,626.00 493.75,625.57 C492.48,625.00 492.00,625.23 492.00,626.43 C492.00,630.06 501.36,631.18 504.81,627.96 ZM 527.79 620.74 L 528.08 612.00 L 531.54 612.00 C533.95,612.00 535.00,611.54 535.00,610.50 C535.00,609.28 533.33,609.00 526.00,609.00 C518.67,609.00 517.00,609.28 517.00,610.50 C517.00,611.55 518.06,612.00 520.50,612.00 L 524.00 612.00 L 524.00 621.07 C524.00,629.18 524.19,630.11 525.75,629.81 C527.23,629.53 527.54,628.13 527.79,620.74 ZM 546.15 627.00 C547.10,624.28 547.61,624.00 551.57,624.00 C555.42,624.00 556.13,624.36 557.50,627.00 C558.89,629.69 562.00,631.22 562.00,629.21 C562.00,628.57 559.52,622.44 554.30,610.20 C554.00,609.48 552.85,609.03 551.76,609.20 C550.30,609.42 548.76,611.96 545.89,618.87 C541.51,629.41 541.39,630.00 543.55,630.00 C544.41,630.00 545.57,628.65 546.15,627.00 ZM 581.00 621.00 L 581.00 612.00 L 584.50 612.00 C586.94,612.00 588.00,611.55 588.00,610.50 C588.00,609.28 586.39,609.00 579.50,609.00 C572.61,609.00 571.00,609.28 571.00,610.50 C571.00,611.50 572.00,612.00 574.00,612.00 L 577.00 612.00 L 577.00 620.33 C577.00,628.84 577.32,630.00 579.67,630.00 C580.68,630.00 581.00,627.83 581.00,621.00 ZM 612.00 628.55 C612.00,627.54 610.58,627.02 607.25,626.80 C602.90,626.53 602.47,626.27 602.18,623.75 C601.88,621.15 602.09,621.00 605.93,621.00 C608.88,621.00 610.00,620.59 610.00,619.50 C610.00,618.43 608.91,618.00 606.17,618.00 C601.56,618.00 601.15,617.67 601.76,614.48 C602.19,612.24 602.71,612.00 607.12,612.00 C610.79,612.00 612.00,611.63 612.00,610.50 C612.00,609.31 610.56,609.00 605.00,609.00 L 598.00 609.00 L 598.00 618.83 C598.00,624.24 598.30,628.97 598.67,629.33 C599.03,629.70 602.18,630.00 605.67,630.00 C610.52,630.00 612.00,629.66 612.00,628.55 ZM 643.15 627.00 C644.10,624.28 644.61,624.00 648.57,624.00 C652.42,624.00 653.13,624.36 654.50,627.00 C655.35,628.65 656.71,630.00 657.53,630.00 C658.34,630.00 659.00,629.78 659.00,629.52 C659.00,629.25 657.13,624.51 654.84,618.97 C649.46,605.94 648.54,605.98 642.48,619.47 C640.02,624.95 638.00,629.56 638.00,629.72 C638.00,629.87 638.92,630.00 640.05,630.00 C641.43,630.00 642.45,629.02 643.15,627.00 ZM 685.43 629.02 C687.61,628.20 688.00,627.43 688.00,623.95 C688.00,620.59 687.69,619.91 686.26,620.19 C685.22,620.39 684.31,621.74 684.00,623.51 C683.60,625.89 682.92,626.57 680.68,626.82 C679.14,627.00 676.77,626.43 675.44,625.55 C672.25,623.46 672.01,616.99 675.00,614.00 C677.22,611.78 681.95,611.35 683.80,613.20 C684.73,614.13 685.28,614.12 686.25,613.13 C688.11,611.25 684.55,609.00 679.71,609.00 C676.60,609.00 675.11,609.69 672.40,612.40 C663.53,621.27 673.25,633.66 685.43,629.02 ZM 715.00 628.50 C715.00,627.35 713.72,627.00 709.50,627.00 C704.06,627.00 704.00,626.97 704.00,624.00 C704.00,621.17 704.22,621.00 708.00,621.00 C710.89,621.00 712.00,620.58 712.00,619.50 C712.00,618.42 710.89,618.00 708.00,618.00 C704.22,618.00 704.00,617.83 704.00,615.00 C704.00,612.07 704.11,612.00 709.00,612.00 C712.78,612.00 714.00,611.63 714.00,610.50 C714.00,609.31 712.56,609.00 707.00,609.00 L 700.00 609.00 L 700.00 618.83 C700.00,624.24 700.30,628.97 700.67,629.33 C701.03,629.70 704.41,630.00 708.17,630.00 C713.57,630.00 715.00,629.69 715.00,628.50 ZM 729.00 623.00 C729.00,619.15 729.34,616.00 729.75,616.01 C730.16,616.02 732.75,619.14 735.50,622.95 C738.29,626.82 741.27,629.90 742.25,629.94 C743.81,629.99 744.00,628.86 744.00,619.50 C744.00,610.83 743.74,609.00 742.50,609.00 C741.31,609.00 741.00,610.44 741.00,616.00 C741.00,619.85 740.66,622.99 740.25,622.99 C739.84,622.98 737.27,619.83 734.54,615.99 C731.56,611.79 728.86,609.00 727.79,609.00 C726.19,609.00 726.00,610.05 726.00,618.83 C726.00,624.24 726.30,628.97 726.67,629.33 C728.40,631.07 729.00,629.45 729.00,623.00 ZM 771.86 628.38 C774.74,626.37 773.28,624.24 770.17,625.91 C767.13,627.53 764.58,627.24 761.63,624.93 C758.37,622.36 758.18,618.32 761.15,614.54 C763.32,611.77 766.57,611.42 771.25,613.45 C772.45,613.97 773.00,613.77 773.00,612.81 C773.00,608.93 766.39,607.71 760.87,610.57 C757.27,612.43 754.63,618.03 755.50,621.98 C756.95,628.62 766.30,632.28 771.86,628.38 ZM 794.00 625.73 C794.00,622.92 794.80,620.28 796.34,617.98 C802.61,608.65 802.46,609.00 800.14,609.00 C798.66,609.00 797.17,610.52 795.11,614.14 L 792.17 619.27 L 789.57 614.14 C787.75,610.56 786.37,609.00 784.98,609.00 C783.89,609.00 783.00,609.20 783.00,609.45 C783.00,609.69 784.58,612.58 786.50,615.86 C788.65,619.53 790.00,623.15 790.00,625.25 C790.00,628.95 790.59,630.00 792.67,630.00 C793.57,630.00 794.00,628.62 794.00,625.73 ZM 560.00 589.00 C560.00,584.05 560.22,580.00 560.48,580.00 C560.74,580.00 562.79,580.73 565.02,581.62 C580.32,587.75 593.74,573.06 588.88,555.50 C587.25,549.63 584.30,546.06 579.28,543.91 C573.91,541.60 570.63,541.51 564.95,543.52 C562.02,544.55 560.31,544.71 559.62,544.02 C559.06,543.46 556.66,543.00 554.30,543.00 L 550.00 543.00 L 550.00 570.50 L 550.00 598.00 L 555.00 598.00 L 560.00 598.00 L 560.00 589.00 ZM 862.25 587.02 C862.66,587.01 863.00,564.77 863.00,537.61 C863.00,493.49 863.17,488.15 864.58,487.61 C865.45,487.27 874.34,486.99 884.33,486.99 L 902.50 486.98 L 894.98 479.74 C879.03,464.38 861.12,447.53 848.50,436.00 C844.65,432.49 834.97,423.48 827.00,415.99 C779.83,371.70 765.95,359.00 764.72,359.00 C762.83,359.00 727.42,394.90 648.25,477.07 C643.71,481.78 640.00,485.87 640.00,486.16 C640.00,486.45 650.24,486.97 662.75,487.31 C700.70,488.35 729.35,493.48 755.50,503.94 C789.53,517.55 813.81,542.51 828.01,578.47 C829.74,582.85 831.34,586.75 831.57,587.12 C831.90,587.65 843.58,587.61 862.25,587.02 ZM 126.00 572.35 L 126.50 562.50 L 138.25 562.22 L 150.00 561.94 L 150.00 571.95 C150.00,581.68 150.07,581.98 152.40,582.56 C153.72,582.89 155.85,583.02 157.15,582.83 L 159.50 582.50 L 159.77 556.25 L 160.03 530.00 L 155.02 530.00 L 150.00 530.00 L 150.00 542.00 L 150.00 554.00 L 138.00 554.00 L 126.00 554.00 L 126.00 542.00 L 126.00 530.00 L 121.00 530.00 L 116.00 530.00 L 116.00 555.83 C116.00,570.04 116.26,581.93 116.58,582.25 C116.90,582.56 119.03,582.69 121.33,582.52 L 125.50 582.21 L 126.00 572.35 ZM 199.86 579.71 C205.52,575.96 208.00,570.73 208.00,562.51 C208.00,558.89 207.39,554.47 206.64,552.67 C202.88,543.69 190.17,539.47 180.34,543.93 C164.32,551.21 163.82,573.71 179.50,581.16 C185.36,583.95 194.44,583.30 199.86,579.71 ZM 253.03 570.00 C253.32,563.12 253.92,556.74 254.36,555.81 C256.65,551.01 265.22,549.38 268.60,553.10 C270.23,554.90 270.55,557.14 270.85,568.58 L 271.19 581.95 L 274.53 582.57 C276.37,582.92 278.35,582.90 278.94,582.54 C280.32,581.68 280.35,556.79 278.97,551.81 C277.73,547.36 273.20,543.31 268.43,542.42 C263.85,541.56 256.72,543.61 253.92,546.58 L 251.70 548.95 L 248.37 546.02 C246.54,544.41 243.41,542.79 241.42,542.42 C237.34,541.65 230.86,543.26 229.00,545.50 C227.27,547.58 226.00,547.37 226.00,545.00 C226.00,543.30 225.33,543.00 221.50,543.00 L 217.00 543.00 L 217.00 562.50 L 217.00 582.00 L 221.50 582.00 L 226.00 582.00 L 226.00 570.45 C226.00,555.34 228.12,551.00 235.50,551.00 C242.26,551.00 243.99,555.09 243.99,571.08 C244.00,576.90 244.32,581.99 244.71,582.38 C245.11,582.77 247.02,582.96 248.96,582.80 L 252.50 582.50 L 253.03 570.00 ZM 317.50 581.14 C319.70,580.14 322.14,578.55 322.92,577.60 C324.16,576.10 324.07,575.63 322.17,573.73 C320.18,571.73 319.74,571.67 316.75,572.93 C314.96,573.68 311.45,574.50 308.95,574.73 C304.96,575.11 303.99,574.79 301.20,572.18 C299.44,570.54 298.00,568.25 298.00,567.10 C298.00,565.07 298.45,565.00 311.53,565.00 C327.05,565.00 326.80,565.16 325.01,556.56 C322.80,545.90 314.25,540.56 303.07,542.85 C293.90,544.74 288.00,552.36 288.00,562.34 C288.00,571.43 292.13,578.00 300.00,581.41 C304.75,583.46 312.65,583.34 317.50,581.14 ZM 343.15 570.06 C343.49,557.32 343.54,557.08 346.44,554.06 C348.70,551.71 350.24,551.00 353.15,551.00 C360.27,551.00 361.97,555.08 361.99,572.19 C362.00,577.95 362.43,582.15 363.06,582.54 C363.65,582.90 365.72,582.90 367.65,582.54 L 371.18 581.88 L 370.84 566.64 C370.56,554.16 370.18,550.92 368.74,548.72 C363.70,541.05 352.44,539.90 345.25,546.34 L 343.00 548.35 L 343.00 545.67 C343.00,543.17 342.71,543.00 338.50,543.00 L 334.00 543.00 L 334.00 562.33 C334.00,572.97 334.30,581.97 334.67,582.33 C335.03,582.70 337.01,583.00 339.07,583.00 L 342.80 583.00 L 343.15 570.06 ZM 404.63 581.70 C405.00,581.34 404.87,579.56 404.35,577.77 C403.49,574.83 403.06,574.53 400.11,574.83 C394.15,575.42 393.00,573.23 393.00,561.35 L 393.00 551.00 L 398.50 551.00 L 404.00 551.00 L 404.00 547.00 L 404.00 543.00 L 398.50 543.00 L 393.00 543.00 L 393.00 538.00 L 393.00 533.00 L 388.50 533.00 L 384.00 533.00 L 383.98 536.75 C383.97,541.21 383.19,542.64 380.50,543.15 C377.51,543.72 377.61,550.37 380.62,550.80 C382.36,551.05 382.84,552.01 383.36,556.30 C383.70,559.16 383.99,564.70 383.99,568.62 C384.00,576.22 385.86,580.13 390.39,582.07 C392.70,583.07 403.55,582.78 404.63,581.70 ZM 440.75 582.01 C441.63,582.00 442.00,579.87 442.00,574.71 L 442.00 567.42 L 451.05 566.37 C460.89,565.22 463.85,563.74 467.75,558.01 C470.96,553.29 470.96,542.73 467.74,537.90 C463.88,532.11 459.31,530.57 444.75,530.16 L 432.00 529.80 L 432.00 555.83 C432.00,579.76 432.14,581.89 433.75,582.33 C434.71,582.60 436.40,582.63 437.50,582.42 C438.60,582.20 440.06,582.02 440.75,582.01 ZM 487.00 569.89 C487.32,561.72 487.95,556.75 488.80,555.74 C490.65,553.52 496.88,550.74 498.57,551.39 C499.69,551.82 500.00,550.87 500.00,546.97 C500.00,543.29 499.62,542.00 498.55,542.00 C496.34,542.00 491.77,544.15 489.25,546.37 L 487.00 548.35 L 487.00 545.62 C487.00,542.99 486.83,542.90 482.25,543.20 L 477.50 543.50 L 477.23 562.69 L 476.96 581.87 L 480.23 582.28 C486.72,583.11 486.46,583.58 487.00,569.89 ZM 533.86 579.71 C540.07,575.60 542.28,570.43 541.85,561.02 C541.55,554.40 541.10,552.83 538.62,549.57 C531.57,540.32 516.52,539.61 508.26,548.12 C502.37,554.19 500.62,561.67 503.14,570.07 C504.43,574.39 510.06,580.23 514.50,581.85 C519.85,583.80 529.25,582.76 533.86,579.71 ZM 628.25 579.92 C632.44,577.20 632.70,576.43 630.35,573.83 C628.55,571.85 625.49,571.40 624.51,572.98 C624.18,573.53 622.46,574.35 620.70,574.82 C614.40,576.48 606.00,572.22 606.00,567.35 C606.00,565.08 606.15,565.05 619.75,564.78 L 633.50 564.50 L 633.28 559.93 C632.82,550.73 628.65,545.06 620.76,542.93 C616.45,541.77 609.99,542.47 606.00,544.52 C593.88,550.76 592.44,571.63 603.62,579.16 C609.10,582.85 609.68,583.00 617.51,582.65 C622.87,582.41 625.40,581.76 628.25,579.92 ZM 650.01 571.00 C650.30,564.67 651.09,558.51 651.77,557.30 C653.63,554.02 657.04,552.00 660.72,552.00 C663.99,552.00 664.00,551.98 664.00,547.00 C664.00,542.21 663.88,542.00 661.25,542.00 C658.24,542.01 652.00,545.37 652.00,546.99 C652.00,547.54 651.55,548.00 651.00,548.00 C650.45,548.00 650.00,546.88 650.00,545.50 C650.00,543.20 649.63,543.00 645.50,543.00 L 641.00 543.00 L 641.00 562.42 C641.00,583.36 640.92,583.06 646.50,582.69 L 649.50 582.50 L 650.01 571.00 ZM 692.92 582.07 C694.02,581.37 694.12,580.43 693.37,577.84 C692.49,574.82 692.08,574.53 689.11,574.83 C683.16,575.42 682.00,573.23 682.00,561.39 L 682.00 551.10 L 687.75 550.80 L 693.50 550.50 L 693.81 546.75 L 694.12 543.00 L 688.06 543.00 L 682.00 543.00 L 682.00 538.00 L 682.00 533.00 L 677.00 533.00 L 672.00 533.00 L 672.00 538.00 C672.00,542.70 671.85,543.00 669.44,543.00 C667.09,543.00 666.91,543.31 667.19,546.75 C667.43,549.69 667.96,550.57 669.63,550.80 C672.22,551.17 672.97,554.78 672.99,566.85 C673.00,575.84 674.83,580.18 679.37,582.01 C682.21,583.16 691.14,583.20 692.92,582.07 ZM 711.00 563.00 L 711.00 543.00 L 706.50 543.00 L 702.00 543.00 L 702.00 562.33 C702.00,572.97 702.30,581.97 702.67,582.33 C703.03,582.70 705.06,583.00 707.17,583.00 L 711.00 583.00 L 711.00 563.00 ZM 747.10 581.85 C749.21,581.22 751.96,579.61 753.21,578.27 L 755.50 575.83 L 753.14 573.92 C750.30,571.62 749.01,571.53 746.44,573.47 C745.37,574.28 742.33,574.95 739.67,574.97 C735.62,574.99 734.36,574.52 731.85,572.00 C730.20,570.35 729.00,568.22 729.19,567.25 C729.49,565.70 731.07,565.47 742.76,565.22 L 756.00 564.94 L 756.00 560.49 C756.00,547.70 746.63,540.28 733.83,542.93 C724.80,544.81 719.00,552.45 719.00,562.48 C719.00,571.77 722.66,577.82 730.50,581.51 C734.17,583.24 741.94,583.40 747.10,581.85 ZM 786.00 581.25 C790.43,579.03 793.46,573.25 792.59,568.63 C791.69,563.82 787.50,560.48 780.05,558.63 C771.99,556.63 770.41,555.28 772.56,552.22 C774.54,549.40 779.59,549.27 785.07,551.92 L 789.03 553.83 L 790.64 550.73 C792.18,547.75 792.15,547.54 790.03,545.82 C787.00,543.37 780.30,541.70 775.89,542.29 C770.45,543.02 766.85,545.09 764.21,549.00 C759.77,555.59 763.68,562.30 773.77,565.42 C784.25,568.66 786.81,571.92 780.84,574.42 C777.36,575.89 772.68,575.14 767.59,572.32 C764.88,570.81 764.60,570.82 763.34,572.54 C762.61,573.55 762.00,575.14 762.00,576.07 C762.00,581.63 778.23,585.13 786.00,581.25 ZM 710.75 535.17 C713.65,531.57 711.12,526.00 706.58,526.00 C701.13,526.00 699.04,534.24 703.89,536.64 C706.58,537.97 708.89,537.47 710.75,535.17 ZM 344.38 616.25 C344.63,614.74 344.87,613.16 344.92,612.75 C345.08,611.24 351.78,611.98 352.39,613.57 C353.50,616.48 351.20,619.00 347.43,619.00 C344.17,619.00 343.96,618.81 344.38,616.25 ZM 402.04 619.75 C402.05,619.06 402.68,617.41 403.42,616.07 L 404.76 613.64 L 406.38 616.77 C408.52,620.90 408.49,621.00 405.00,621.00 C403.25,621.00 402.01,620.48 402.04,619.75 ZM 551.75 621.21 C548.68,620.83 548.48,620.23 550.16,616.55 C551.71,613.15 552.36,613.33 553.89,617.57 C555.38,621.69 555.40,621.65 551.75,621.21 ZM 648.33 621.05 L 645.17 620.50 L 647.01 617.00 L 648.85 613.50 L 650.49 617.36 C651.38,619.48 651.98,621.30 651.81,621.40 C651.64,621.51 650.08,621.35 648.33,621.05 ZM 564.78 573.49 C561.03,571.39 560.00,569.05 560.00,562.67 C560.00,558.05 560.44,556.74 562.85,554.16 C570.76,545.69 580.80,551.37 579.77,563.73 C579.44,567.75 578.70,569.76 576.86,571.60 C573.76,574.69 568.41,575.53 564.78,573.49 ZM 837.08 577.15 C836.53,576.13 835.14,572.90 833.99,569.97 C831.38,563.36 821.14,545.48 815.71,538.05 C805.13,523.58 787.93,509.69 769.30,500.57 C744.13,488.26 702.20,479.03 671.25,479.01 C664.49,479.00 661.00,478.63 661.00,477.90 C661.00,477.30 669.01,468.64 678.80,458.65 C688.58,448.67 711.03,425.65 728.67,407.50 C746.32,389.35 761.72,373.64 762.89,372.58 C765.01,370.68 765.06,370.68 767.77,373.15 C769.27,374.53 782.20,386.61 796.50,400.00 C810.80,413.39 824.75,426.41 827.50,428.93 C830.25,431.45 839.93,440.48 849.00,449.00 C858.08,457.53 868.58,467.29 872.34,470.70 C876.10,474.11 878.89,477.37 878.53,477.95 C878.14,478.59 873.20,479.00 865.94,479.00 L 854.00 479.00 L 854.00 529.00 L 854.00 579.00 L 846.04 579.00 C839.30,579.00 837.92,578.71 837.08,577.15 ZM 758.93 476.59 C759.63,475.74 759.98,472.65 759.80,468.84 L 759.50 462.50 L 753.09 462.20 C748.64,461.99 746.43,462.29 745.86,463.20 C744.83,464.81 744.77,474.09 745.77,475.63 C747.34,478.06 757.12,478.77 758.93,476.59 ZM 781.79 469.71 L 782.09 461.91 L 774.79 462.21 L 767.50 462.50 L 767.50 469.29 C767.50,477.39 768.24,478.13 776.00,477.76 L 781.50 477.50 L 781.79 469.71 ZM 778.88 453.38 L 782.00 452.75 L 782.00 445.38 L 782.00 438.00 L 775.11 438.00 C769.74,438.00 768.08,438.35 767.61,439.58 C766.76,441.78 766.87,450.26 767.77,451.63 C769.05,453.61 773.89,454.37 778.88,453.38 ZM 759.79 445.25 L 760.09 438.00 L 753.15 438.00 C745.51,438.00 745.47,438.04 745.13,444.82 C744.74,452.61 745.24,453.13 752.83,452.79 L 759.50 452.50 L 759.79 445.25 ZM 182.84 573.47 C178.83,571.30 176.36,564.09 177.88,559.02 C180.72,549.53 191.50,547.22 196.75,554.97 C203.92,565.56 193.58,579.31 182.84,573.47 ZM 298.00 556.95 C298.00,553.78 302.73,550.00 306.71,550.00 C311.18,550.00 313.63,551.39 315.49,554.98 C316.32,556.59 317.00,558.15 317.00,558.45 C317.00,558.75 312.73,559.00 307.50,559.00 C298.59,559.00 298.00,558.87 298.00,556.95 ZM 442.21 548.75 L 442.50 539.50 L 448.35 539.20 C457.83,538.71 462.13,543.10 459.98,551.09 C458.65,556.01 455.07,558.00 447.51,558.00 L 441.92 558.00 L 442.21 548.75 ZM 517.43 574.04 C512.61,572.09 509.97,563.41 512.40,557.57 C513.91,553.96 519.08,550.01 522.30,550.00 C527.94,549.99 533.00,555.90 533.00,562.50 C533.00,571.69 525.45,577.28 517.43,574.04 ZM 606.00 556.95 C606.00,553.58 610.73,550.00 615.19,550.00 C619.60,550.00 624.00,553.47 624.00,556.95 C624.00,558.86 623.40,559.00 615.00,559.00 C606.60,559.00 606.00,558.86 606.00,556.95 ZM 728.66 557.25 C731.06,548.29 744.43,547.55 746.55,556.25 L 747.22 559.00 L 737.70 559.00 C729.13,559.00 728.23,558.83 728.66,557.25 Z" fill="rgb(254,254,254)"/>
</g>
</svg>